# xmcd
#
# Track frame offsets:
#  150
#  28618
#  45915
#  70520
#  93127
#  116946
#  144624
#  169511
#  191094
#  211439
#  234110
#
# Disc length: 3533 seconds
#
# Revision: 0
# Processed by: cddbd v1.5.2PL0 Copyright (c) Steve Scherf et al.
# Submitted via: AltoMP3_Maker 3.0
#
DISCID=8b0dcb0b
DTITLE=Porkroll Project - Three Legged Dog
DYEAR=1900
DGENRE=
TTITLE0=Three Legged Dog
TTITLE1=Ninety-One Days
TTITLE2=Broke and Hungry
TTITLE3=Shoeshine Joe
TTITLE4=Folsom Prison Blues
TTITLE5=Cold Turkey
TTITLE6=Lamp In The Window
TTITLE7=Party 'Til The Cows Come Home
TTITLE8=Miss Mandy's Kitchen
TTITLE9=Ain't A Day Goes By
TTITLE10=All I Got Is Time
EXTD=
EXTT0=
EXTT1=
EXTT2=
EXTT3=
EXTT4=
EXTT5=
EXTT6=
EXTT7=
EXTT8=
EXTT9=
EXTT10=
PLAYORDER=
